<svg xmlns="http://www.w3.org/2000/svg" viewBox="0 0 1000 730" role="img" aria-label="MindBridge Memory Write Path">
  <style>text { font-family: 'JetBrains Mono', ui-monospace, SFMono-Regular, Menlo, Consolas, monospace; }</style>
        <defs>
          <marker id="arrowhead" markerWidth="10" markerHeight="7" refX="9" refY="3.5" orient="auto">
            <polygon points="0 0, 10 3.5, 0 7" fill="#64748b"/>
          </marker>
          <pattern id="grid" width="40" height="40" patternUnits="userSpaceOnUse">
            <path d="M 40 0 L 0 0 0 40" fill="none" stroke="#1e293b" stroke-width="0.5"/>
          </pattern>
        </defs>
        <rect width="100%" height="100%" fill="#020617"/>
        <rect width="100%" height="100%" fill="url(#grid)"/>
        <line x1="110" y1="96" x2="110" y2="668" stroke="#1e293b" stroke-width="1.5" stroke-dasharray="4,4"/><rect x="42" y="48" width="136" height="40" rx="6" fill="#0f172a"/><rect x="42" y="48" width="136" height="40" rx="6" fill="rgba(30, 41, 59, 0.5)" stroke="#94a3b8" stroke-width="1.5"/><text x="110.0" y="72.0" fill="white" font-size="10" font-weight="600" text-anchor="middle">Chat API</text><line x1="310" y1="96" x2="310" y2="668" stroke="#1e293b" stroke-width="1.5" stroke-dasharray="4,4"/><rect x="242" y="48" width="136" height="40" rx="6" fill="#0f172a"/><rect x="242" y="48" width="136" height="40" rx="6" fill="rgba(30, 41, 59, 0.5)" stroke="#94a3b8" stroke-width="1.5"/><text x="310.0" y="72.0" fill="white" font-size="10" font-weight="600" text-anchor="middle">PostgreSQL</text><line x1="520" y1="96" x2="520" y2="668" stroke="#1e293b" stroke-width="1.5" stroke-dasharray="4,4"/><rect x="452" y="48" width="136" height="40" rx="6" fill="#0f172a"/><rect x="452" y="48" width="136" height="40" rx="6" fill="rgba(30, 41, 59, 0.5)" stroke="#94a3b8" stroke-width="1.5"/><text x="520.0" y="72.0" fill="white" font-size="10" font-weight="600" text-anchor="middle">Worker</text><line x1="715" y1="96" x2="715" y2="668" stroke="#1e293b" stroke-width="1.5" stroke-dasharray="4,4"/><rect x="647" y="48" width="136" height="40" rx="6" fill="#0f172a"/><rect x="647" y="48" width="136" height="40" rx="6" fill="rgba(30, 41, 59, 0.5)" stroke="#94a3b8" stroke-width="1.5"/><text x="715.0" y="72.0" fill="white" font-size="10" font-weight="600" text-anchor="middle">LLM</text><line x1="900" y1="96" x2="900" y2="668" stroke="#1e293b" stroke-width="1.5" stroke-dasharray="4,4"/><rect x="832" y="48" width="136" height="40" rx="6" fill="#0f172a"/><rect x="832" y="48" width="136" height="40" rx="6" fill="rgba(30, 41, 59, 0.5)" stroke="#94a3b8" stroke-width="1.5"/><text x="900.0" y="72.0" fill="white" font-size="10" font-weight="600" text-anchor="middle">Store</text><rect x="186" y="118" width="248" height="52" rx="6" fill="#0f172a"/><rect x="186" y="118" width="248" height="52" rx="6" fill="rgba(120, 53, 15, 0.3)" stroke="#fbbf24" stroke-width="1.5"/><text x="310.0" y="138" fill="white" font-size="9" font-weight="600" text-anchor="middle">assistant row + revision + job</text><text x="310.0" y="154" fill="#94a3b8" font-size="9" text-anchor="middle">one transaction</text><line x1="116" y1="144" x2="180" y2="144" stroke="#22d3ee" stroke-width="1.5" marker-end="url(#arrowhead)"/><rect x="130" y="127" width="36" height="14" fill="#020617"/><text x="148.0" y="137" fill="#e2e8f0" font-size="8" font-weight="400" text-anchor="middle">reply</text><text x="310" y="188" fill="#94a3b8" font-size="7" font-weight="400" text-anchor="middle">eligible reply and outbox job commit atomically</text><line x1="514" y1="224" x2="316" y2="224" stroke="#64748b" stroke-width="1.5" marker-end="url(#arrowhead)"/><rect x="380" y="207" width="70" height="14" fill="#020617"/><text x="415.0" y="217" fill="#e2e8f0" font-size="8" font-weight="400" text-anchor="middle">claim_next()</text><rect x="363" y="228" width="104" height="12" fill="#020617"/><text x="415.0" y="237" fill="#94a3b8" font-size="7" font-weight="400" text-anchor="middle">FOR UPDATE SKIP LOCKED</text><line x1="316" y1="270" x2="514" y2="270" stroke="#64748b" stroke-width="1.5" marker-end="url(#arrowhead)"/><rect x="339" y="253" width="151" height="14" fill="#020617"/><text x="415.0" y="263" fill="#e2e8f0" font-size="8" font-weight="400" text-anchor="middle">job + lease_until = now + 90s</text><text x="415" y="294" fill="#34d399" font-size="7" font-weight="600" text-anchor="middle">commit — claim lock released</text><line x1="514" y1="332" x2="316" y2="332" stroke="#64748b" stroke-width="1.5" marker-end="url(#arrowhead)"/><rect x="332" y="315" width="166" height="14" fill="#020617"/><text x="415.0" y="325" fill="#e2e8f0" font-size="8" font-weight="400" text-anchor="middle">lock User -> Conversation -> Job</text><rect x="331" y="336" width="167" height="12" fill="#020617"/><text x="415.0" y="345" fill="#94a3b8" font-size="7" font-weight="400" text-anchor="middle">FOR SHARE -> FOR UPDATE -> FOR UPDATE</text><line x1="316" y1="378" x2="514" y2="378" stroke="#64748b" stroke-width="1.5" marker-end="url(#arrowhead)"/><rect x="337" y="361" width="156" height="14" fill="#020617"/><text x="415.0" y="371" fill="#e2e8f0" font-size="8" font-weight="400" text-anchor="middle">scoped messages + gates passed</text><rect x="321" y="382" width="188" height="12" fill="#020617"/><text x="415.0" y="391" fill="#94a3b8" font-size="7" font-weight="400" text-anchor="middle">consent · epoch · revision · crisis · BYOK</text><line x1="526" y1="426" x2="709" y2="426" stroke="#64748b" stroke-width="1.5" marker-end="url(#arrowhead)"/><rect x="561" y="409" width="113" height="14" fill="#020617"/><text x="617.5" y="419" fill="#e2e8f0" font-size="8" font-weight="400" text-anchor="middle">structured extraction</text><rect x="580" y="430" width="75" height="12" fill="#020617"/><text x="617.5" y="439" fill="#94a3b8" font-size="7" font-weight="400" text-anchor="middle">30s cap, temp 0</text><line x1="709" y1="470" x2="526" y2="470" stroke="#64748b" stroke-width="1.5" marker-end="url(#arrowhead)"/><rect x="568" y="453" width="98" height="14" fill="#020617"/><text x="617.5" y="463" fill="#e2e8f0" font-size="8" font-weight="400" text-anchor="middle">schema-bound draft</text><text x="520" y="496" fill="#34d399" font-size="7" font-weight="600" text-anchor="middle">verify exact evidence quotes</text><line x1="526" y1="534" x2="894" y2="534" stroke="#64748b" stroke-width="1.5" marker-end="url(#arrowhead)"/><rect x="658" y="517" width="103" height="14" fill="#020617"/><text x="710.0" y="527" fill="#e2e8f0" font-size="8" font-weight="400" text-anchor="middle">aput semantic facts</text><rect x="681" y="538" width="58" height="12" fill="#020617"/><text x="710.0" y="547" fill="#94a3b8" font-size="7" font-weight="400" text-anchor="middle">best effort</text><line x1="526" y1="578" x2="894" y2="578" stroke="#22d3ee" stroke-width="1.5" marker-end="url(#arrowhead)"/><rect x="675" y="561" width="70" height="14" fill="#020617"/><text x="710.0" y="571" fill="#e2e8f0" font-size="8" font-weight="400" text-anchor="middle">aput episode</text><rect x="641" y="582" width="138" height="12" fill="#020617"/><text x="710.0" y="591" fill="#94a3b8" font-size="7" font-weight="400" text-anchor="middle">idempotent on epoch + revision</text><line x1="514" y1="626" x2="316" y2="626" stroke="#64748b" stroke-width="1.5" marker-end="url(#arrowhead)"/><rect x="375" y="609" width="79" height="14" fill="#020617"/><text x="415.0" y="619" fill="#e2e8f0" font-size="8" font-weight="400" text-anchor="middle">mark succeeded</text><text x="415" y="650" fill="#34d399" font-size="7" font-weight="600" text-anchor="middle">commit — processing locks released</text><path d="M 48 212 h -10 v 70 h 10" fill="none" stroke="#34d399" stroke-width="2"/><text x="6" y="240" fill="#34d399" font-size="8" font-weight="600" text-anchor="start">claim</text><text x="6" y="252" fill="#34d399" font-size="8" font-weight="600" text-anchor="start">lock</text><path d="M 76 212 h -10 v 452 h 10" fill="none" stroke="#a78bfa" stroke-width="2"/><text x="60" y="438" fill="#a78bfa" font-size="8" font-weight="600" text-anchor="end">lease</text><text x="60" y="450" fill="#a78bfa" font-size="8" font-weight="600" text-anchor="end">90s</text><path d="M 100 318 h -10 v 344 h 10" fill="none" stroke="#34d399" stroke-width="2"/><text x="84" y="498" fill="#34d399" font-size="8" font-weight="600" text-anchor="end">work tx</text><text x="84" y="510" fill="#34d399" font-size="8" font-weight="600" text-anchor="end">locks</text><text x="500" y="700" fill="#94a3b8" font-size="8" font-weight="400" text-anchor="middle">A crashed worker lets the lease lapse; its stale token can no longer complete the job.</text>
<text x="500.0" y="30" fill="white" font-size="18" font-weight="700" text-anchor="middle">MindBridge Memory Write Path</text>
</svg>
